<?xml version="1.0" encoding="UTF-8"?>
<svg id="Calque_1" xmlns="http://www.w3.org/2000/svg" version="1.1" viewBox="0 0 771.3 291.6">
  <!-- Generator: Adobe Illustrator 30.2.1, SVG Export Plug-In . SVG Version: 2.1.1 Build 1)  -->
  <defs>
    <style>
      .st0 {
        fill: #fff;
      }

      .st1 {
        fill: #00569d;
      }

      .st2 {
        fill: #ffd008;
      }
    </style>
  </defs>
  <polygon class="st2" points="159.4 227.2 123.4 191.1 91.1 223.4 159.3 291.6 226.8 224.1 194.7 191.9 159.4 227.2"/>
  <polygon class="st1" points="159.6 4.1 15.7 148 87.1 219.4 87.2 219.4 123.7 182.9 159.8 219 195 183.7 231.1 219.8 303.2 147.7 159.6 4.1"/>
  <g>
    <path class="st0" d="M84,130.5v-22.8h-8.5v-4.4h21.8v4.4h-8.5v22.8h-4.8Z"/>
    <path class="st0" d="M100.7,130.5v-27.2h10.7c1.4,0,2.7.1,3.9.4,1.2.3,2.3.7,3.3,1.4.9.6,1.7,1.5,2.2,2.7s.8,2.5.8,4.2-.2,2.6-.7,3.6c-.5,1-1.2,1.9-2,2.6-.9.7-1.9,1.3-3.1,1.6l6,10.6h-5.4l-5.3-9.8h-5.6v9.8h-4.8,0ZM105.5,116.5h5.3c.9,0,1.7,0,2.4-.2s1.4-.4,1.9-.7c.5-.3,1-.8,1.3-1.4.3-.6.4-1.3.5-2.2,0-1.1-.2-1.9-.7-2.5s-1.1-1-1.9-1.3c-.8-.3-1.8-.4-3-.4h-5.8v8.7Z"/>
    <path class="st0" d="M126.8,130.5v-27.2h19.2v4.4h-14.4v7.1h12.5v4.3h-12.5v7h14.4v4.4h-19.2Z"/>
    <path class="st0" d="M150.6,130.5v-27.2h5.1l13.1,19.8v-19.8h4.8v27.2h-5l-13.2-19.7v19.7h-4.8,0Z"/>
    <path class="st0" d="M191.4,130.8c-2.8,0-5.2-.6-7.1-1.8-2-1.2-3.5-2.8-4.5-4.9-1-2.1-1.6-4.5-1.6-7.2s.5-5.2,1.6-7.2c1-2.1,2.6-3.7,4.5-4.9,2-1.2,4.4-1.8,7.1-1.8s5.2.6,7.1,1.8,3.5,2.8,4.5,4.9c1,2.1,1.6,4.5,1.6,7.2s-.5,5.1-1.6,7.2-2.5,3.8-4.5,5c-2,1.2-4.4,1.8-7.2,1.8ZM191.5,126.4c1.9,0,3.5-.4,4.8-1.3,1.2-.9,2.1-2.1,2.7-3.5s.9-3,.9-4.6-.2-2.4-.5-3.5c-.3-1.1-.8-2.1-1.5-3s-1.5-1.6-2.6-2.1c-1-.5-2.3-.8-3.8-.8s-3.5.4-4.7,1.3-2.2,2.1-2.7,3.5-.9,3-.9,4.6.3,3.2.9,4.6c.6,1.4,1.5,2.6,2.7,3.5,1.2.9,2.8,1.3,4.7,1.3h0Z"/>
    <path class="st0" d="M209.3,130.5v-27.2h4.8v27.2h-4.8Z"/>
    <path class="st0" d="M230.3,130.8c-1.8,0-3.5-.3-5.1-.8s-2.9-1.4-4-2.6c-1.1-1.2-1.8-2.8-2.1-4.8h4.9c.3,1,.8,1.8,1.5,2.3.7.6,1.5,1,2.4,1.2.9.2,1.9.3,2.8.3s1.6-.1,2.4-.3c.8-.2,1.4-.6,1.9-1.1.5-.5.7-1.2.7-2s-.1-1.2-.4-1.6c-.3-.4-.6-.7-1.1-1s-1-.5-1.7-.6c-.6-.2-1.3-.4-2.1-.5-.7-.1-1.5-.3-2.2-.5s-1.4-.4-2-.7c-.8-.3-1.6-.6-2.4-1-.8-.4-1.4-.8-2-1.4s-1-1.2-1.3-2c-.3-.8-.5-1.7-.5-2.8s.2-2.3.6-3.2,1-1.7,1.7-2.2,1.5-1,2.4-1.4c.9-.3,1.8-.6,2.8-.7s1.9-.2,2.7-.2c1.7,0,3.2.3,4.6.8,1.4.6,2.5,1.4,3.4,2.6.9,1.2,1.4,2.7,1.5,4.5h-4.6c-.1-.9-.4-1.6-.9-2.1s-1.1-.9-1.9-1.1-1.6-.4-2.5-.4-1.2,0-1.8.1c-.6,0-1.1.3-1.6.5s-.9.6-1.1,1c-.3.4-.4,1-.4,1.6s.1,1.1.4,1.5.7.8,1.2,1.1c.5.3,1.1.5,1.8.8.9.4,1.9.6,2.9.8s2.1.4,3,.7c.9.3,1.8.6,2.6.9.8.4,1.4.8,2,1.3.6.5,1,1.2,1.3,1.9.3.8.5,1.7.5,2.7,0,1.5-.3,2.8-.8,3.9s-1.3,1.9-2.3,2.6c-1,.7-2,1.1-3.3,1.4s-2.5.4-3.8.4h0Z"/>
    <path class="st0" d="M67,168.9v-27.2h10c2.8,0,5.3.5,7.2,1.6,2,1.1,3.5,2.6,4.5,4.7,1,2,1.6,4.5,1.6,7.3s-.5,5.2-1.5,7.2c-1,2-2.5,3.6-4.5,4.7s-4.4,1.6-7.3,1.6h-10.1ZM71.8,164.6h5.1c2,0,3.7-.4,4.9-1.2s2.1-1.9,2.7-3.2.9-3,.9-4.8-.3-3.3-.8-4.7c-.6-1.4-1.5-2.5-2.7-3.3s-2.9-1.2-4.9-1.2h-5.2v18.4h0Z"/>
    <path class="st0" d="M95,168.9v-27.2h19.2v4.4h-14.4v7.1h12.5v4.3h-12.5v7h14.4v4.4h-19.2Z"/>
    <path class="st0" d="M130.2,169.3c-2.8,0-5.2-.6-7.1-1.7s-3.4-2.8-4.3-4.9c-1-2.1-1.5-4.5-1.5-7.2s.5-5.2,1.5-7.3,2.5-3.7,4.4-4.9,4.3-1.8,7-1.8,3.9.3,5.4,1c1.6.7,2.8,1.7,3.8,2.9s1.6,2.8,1.9,4.7h-4.6c-.4-1.3-1.1-2.3-2.2-3.1-1.1-.7-2.5-1.1-4.3-1.1s-3.5.4-4.6,1.3c-1.2.9-2,2-2.6,3.5s-.8,2.9-.8,4.5.3,3.2.8,4.7,1.4,2.6,2.6,3.5,2.8,1.3,4.6,1.3,2.2-.2,3.1-.5c.9-.3,1.6-.8,2.2-1.4.6-.6,1-1.4,1.2-2.2h4.9c-.3,1.8-1,3.4-2.1,4.6-1.1,1.3-2.4,2.3-4,2.9-1.6.7-3.5,1-5.5,1h0Z"/>
    <path class="st0" d="M142.3,168.9l10.4-27.2h5.7l10.4,27.2h-5.2l-1.8-5h-12.5l-1.8,5h-5.1,0ZM150.8,159.6h9.4l-4.7-13-4.7,13Z"/>
    <path class="st0" d="M172,168.9v-27.2h6.6l7.5,13.7,7.5-13.7h6.4v27.2h-4.8v-21.1l-8.1,14.7h-2l-8.2-14.7v21.1h-4.8Z"/>
    <path class="st0" d="M206.1,168.9v-27.2h10.2c2,0,3.8.3,5.3.9s2.7,1.6,3.5,3,1.2,3.1,1.2,5.3-.5,3.9-1.4,5.3-2.2,2.5-3.8,3.2c-1.6.7-3.4,1.1-5.5,1.1h-4.9v8.4h-4.8ZM210.9,156.2h4.8c1.8,0,3.2-.4,4.3-1.3s1.6-2.2,1.6-4-.4-2.8-1.3-3.6c-.9-.8-2.3-1.2-4.1-1.2h-5.2v10.1h0Z"/>
    <path class="st0" d="M241.4,169.3c-1.8,0-3.5-.3-5.1-.8s-2.9-1.4-4-2.6c-1.1-1.2-1.8-2.8-2.1-4.8h4.9c.3,1,.8,1.8,1.5,2.3.7.6,1.5,1,2.4,1.2.9.2,1.9.3,2.8.3s1.6-.1,2.4-.3c.8-.2,1.4-.6,1.9-1.1.5-.5.7-1.2.7-2s-.1-1.2-.4-1.6c-.3-.4-.6-.7-1.1-1s-1-.5-1.7-.6c-.6-.2-1.3-.4-2.1-.5-.7-.1-1.5-.3-2.2-.5s-1.4-.4-2-.7c-.8-.3-1.6-.6-2.4-1-.8-.4-1.4-.8-2-1.4s-1-1.2-1.3-2c-.3-.8-.5-1.7-.5-2.8s.2-2.3.6-3.2,1-1.7,1.7-2.2,1.5-1,2.4-1.4,1.8-.6,2.8-.7,1.9-.2,2.7-.2c1.7,0,3.2.3,4.6.8,1.4.6,2.5,1.4,3.4,2.6.9,1.2,1.4,2.7,1.5,4.5h-4.6c-.1-.9-.4-1.6-.9-2.1s-1.1-.9-1.9-1.1c-.8-.2-1.6-.4-2.5-.4s-1.2,0-1.8.1c-.6.1-1.1.3-1.6.5s-.9.6-1.1,1c-.3.4-.4,1-.4,1.6s.1,1.1.4,1.5.7.8,1.2,1.1,1.1.5,1.8.8c.9.4,1.9.6,2.9.8s2.1.4,3,.7c.9.3,1.8.6,2.6.9.8.4,1.4.8,2,1.3.6.5,1,1.2,1.3,1.9.3.8.5,1.7.5,2.7,0,1.5-.3,2.8-.8,3.9s-1.3,1.9-2.3,2.6c-1,.7-2,1.1-3.3,1.4s-2.5.4-3.8.4h0Z"/>
  </g>
  <g>
    <path class="st0" d="M336.7,139.7v-28h3.4v24.9h15.4v3.1h-18.8,0Z"/>
    <path class="st0" d="M365.7,139.9c-.9,0-1.9-.1-2.7-.4-.9-.2-1.7-.6-2.4-1.1-.7-.5-1.2-1.2-1.7-1.9s-.6-1.7-.6-2.7.2-2.2.6-3c.4-.8,1-1.5,1.8-1.9.7-.5,1.6-.8,2.6-1,1-.2,2-.3,3-.3h6.1c0-1.2-.2-2.2-.5-3.1s-.9-1.5-1.6-2c-.7-.5-1.7-.7-2.9-.7s-1.4,0-2.1.2-1.2.4-1.6.7-.8.8-1,1.4h-3.6c.2-.9.5-1.8,1.1-2.4s1.2-1.2,2-1.7,1.6-.8,2.5-1c.9-.2,1.8-.3,2.7-.3,3,0,5.1.9,6.4,2.6,1.3,1.8,1.9,4.2,1.9,7.2v11.3h-2.8l-.2-2.6c-.6.8-1.3,1.4-2.1,1.8-.8.4-1.7.7-2.5.8-.9.1-1.7.2-2.4.2h0ZM366,136.9c1.3,0,2.5-.2,3.4-.6,1-.4,1.7-1.1,2.2-1.9s.8-1.9.8-3.1v-1h-3.7c-.9,0-1.7,0-2.6,0s-1.6.1-2.3.3-1.2.5-1.6.9-.6,1.1-.6,1.9.2,1.4.6,1.9c.4.5.9.9,1.6,1.1.7.2,1.4.4,2.1.4h0Z"/>
    <path class="st0" d="M399.3,139.9c-.9,0-1.9,0-2.9-.3-1-.2-1.9-.5-2.7-.9-.8-.4-1.5-1-2.1-1.8-.5-.8-.9-1.7-1.1-2.8h3.4c.3.7.7,1.3,1.3,1.7s1.3.7,2,.9,1.5.3,2.2.3.9,0,1.5,0,1.1-.2,1.6-.4c.5-.2.9-.5,1.3-.9s.5-.9.5-1.7-.1-1-.4-1.3c-.2-.3-.6-.6-1-.8-.4-.2-.9-.4-1.5-.5-1.2-.3-2.6-.5-4-.7s-2.7-.7-3.7-1.3c-.4-.2-.7-.5-1-.8-.3-.3-.6-.6-.8-1s-.4-.8-.5-1.3c-.1-.5-.2-1-.2-1.5,0-1,.2-1.9.6-2.7.4-.7,1-1.4,1.7-1.9s1.6-.8,2.5-1.1c1-.2,2-.4,3.1-.4s2.6.2,3.7.6c1.1.4,2,1.1,2.7,1.9.7.8,1.1,1.8,1.3,3.1h-3.1c-.2-.8-.7-1.4-1.5-1.9-.8-.5-1.9-.7-3.1-.7s-.9,0-1.4.1c-.5,0-1,.2-1.5.4s-.9.5-1.2.9c-.3.4-.5.9-.5,1.5s.1,1.1.5,1.5c.3.4.7.7,1.3.9.5.2,1.2.4,1.9.6.9.2,1.9.4,3,.6s2,.4,2.6.6c.8.3,1.5.6,2.1,1.1.6.5,1,1,1.3,1.7s.4,1.4.4,2.3-.2,2.3-.7,3c-.5.8-1.1,1.4-2,1.9-.8.4-1.7.8-2.7.9s-2,.3-2.9.3h0Z"/>
    <path class="st0" d="M420.9,139.9c-2.2,0-4-.5-5.5-1.4-1.5-.9-2.6-2.2-3.3-3.8s-1.1-3.4-1.1-5.5.4-3.9,1.1-5.5,1.8-2.9,3.3-3.8c1.5-.9,3.3-1.4,5.5-1.4s4,.5,5.5,1.4c1.5.9,2.6,2.2,3.3,3.8s1.1,3.4,1.1,5.5-.4,3.9-1.1,5.5-1.8,2.9-3.3,3.8-3.3,1.4-5.5,1.4h0ZM420.9,136.9c1.5,0,2.8-.3,3.7-1s1.7-1.6,2.1-2.8.7-2.5.7-3.9-.2-2.7-.7-3.9-1.2-2.1-2.1-2.8c-1-.7-2.2-1-3.7-1s-2.7.3-3.7,1c-1,.7-1.7,1.6-2.1,2.8-.5,1.2-.7,2.5-.7,3.9s.2,2.7.7,3.9,1.2,2.1,2.1,2.8,2.2,1,3.7,1Z"/>
    <path class="st0" d="M435.4,139.7v-28h3.4v28h-3.4Z"/>
    <path class="st0" d="M452.8,139.9c-2.9,0-5.1-.8-6.5-2.3-1.5-1.5-2.2-3.9-2.2-7v-11.8h3.4v11.6c0,1.4.2,2.5.6,3.5.4,1,1,1.7,1.8,2.2.8.5,1.8.8,3,.8s2.3-.3,3.1-.8,1.4-1.3,1.8-2.2c.4-1,.6-2.1.6-3.5v-11.6h3.4v11.8c0,3.2-.8,5.5-2.3,7s-3.7,2.3-6.6,2.3Z"/>
    <path class="st0" d="M475.3,139.7c-1.6,0-2.9-.2-3.8-.7-1-.5-1.7-1.2-2.1-2.2s-.6-2.3-.6-3.8v-11.2h-3.4v-3h3.4v-6.2h3.4v6.2h5.6v3h-5.6v10.8c0,1.4.3,2.5.8,3.1s1.6,1,3.1,1h1.5v2.9h-2.3,0Z"/>
    <path class="st0" d="M483.2,115.7c-.7,0-1.2-.2-1.6-.6s-.6-1-.6-1.6.2-1.2.6-1.6c.4-.4,1-.6,1.6-.6s1.1.2,1.6.6.7.9.7,1.6-.2,1.2-.7,1.6-1,.6-1.6.6ZM481.5,139.7v-20.9h3.4v20.9h-3.4Z"/>
    <path class="st0" d="M499.3,139.9c-2.2,0-4-.5-5.5-1.4-1.5-.9-2.6-2.2-3.3-3.8s-1.1-3.4-1.1-5.5.4-3.9,1.1-5.5,1.8-2.9,3.3-3.8c1.5-.9,3.3-1.4,5.5-1.4s4,.5,5.5,1.4c1.5.9,2.6,2.2,3.3,3.8s1.1,3.4,1.1,5.5-.4,3.9-1.1,5.5-1.8,2.9-3.3,3.8-3.3,1.4-5.5,1.4h0ZM499.3,136.9c1.5,0,2.8-.3,3.7-1s1.7-1.6,2.1-2.8.7-2.5.7-3.9-.2-2.7-.7-3.9-1.2-2.1-2.1-2.8c-1-.7-2.2-1-3.7-1s-2.7.3-3.7,1c-1,.7-1.7,1.6-2.1,2.8-.5,1.2-.7,2.5-.7,3.9s.2,2.7.7,3.9,1.2,2.1,2.1,2.8,2.2,1,3.7,1Z"/>
    <path class="st0" d="M513.7,139.7v-20.9h3.2l.2,3.2c.5-.8,1.1-1.4,1.8-1.9s1.5-.9,2.4-1.1,1.7-.4,2.6-.4c2,0,3.6.4,4.8,1.3s2,2,2.5,3.4c.5,1.4.7,3.1.7,4.9v11.5h-3.4v-10.6c0-1,0-1.9-.2-2.8s-.4-1.7-.7-2.4-.9-1.3-1.5-1.7c-.7-.4-1.5-.6-2.6-.6s-2.5.4-3.5,1.1c-1,.8-1.7,1.8-2.2,3.1s-.7,2.7-.7,4.3v9.5h-3.4Z"/>
    <path class="st0" d="M562.4,147.5v-10.1c-.8,1-1.8,1.6-2.9,2s-2.2.5-3.3.5c-1.6,0-3-.3-4.2-.8s-2.2-1.3-2.9-2.3c-.8-1-1.4-2.1-1.7-3.4-.4-1.3-.6-2.7-.6-4.2,0-2.1.4-4,1.1-5.7.8-1.6,1.9-2.9,3.3-3.8,1.5-.9,3.2-1.4,5.2-1.4s2.3.2,3.4.6c1.1.4,1.9,1,2.6,1.9l.3-2.1h5.1v28.7h-5.5ZM557.3,135c1.1,0,2-.3,2.8-.8s1.3-1.2,1.7-2.1.6-1.8.6-2.8-.2-2-.6-2.9-.9-1.5-1.7-2.1c-.7-.5-1.7-.8-2.8-.8s-2.1.3-2.8.8-1.3,1.2-1.6,2.1c-.3.9-.5,1.8-.5,2.8s.2,1.9.5,2.8.9,1.6,1.6,2.1,1.7.8,2.9.8h0Z"/>
    <path class="st0" d="M581.7,140c-3.1,0-5.4-.8-7.1-2.4s-2.5-3.9-2.5-7.1v-11.7h5.5v11.3c0,.9.1,1.8.4,2.5.3.7.7,1.3,1.3,1.7.6.4,1.4.6,2.3.6s1.8-.2,2.4-.7c.5-.4.9-1,1.1-1.8s.3-1.5.3-2.4v-11.3h5.5v11.7c0,3.3-.8,5.7-2.5,7.2-1.6,1.5-3.9,2.3-6.9,2.3h0Z"/>
    <path class="st0" d="M598.2,116.7c-1,0-1.9-.3-2.5-.9s-.9-1.4-.9-2.4.3-1.9,1-2.5,1.5-.9,2.5-.9,1.7.3,2.4.9,1,1.4,1,2.5-.3,1.8-1,2.4c-.7.6-1.5.9-2.5.9h0ZM595.4,139.7v-20.9h5.5v20.9h-5.5Z"/>
    <path class="st0" d="M605.3,139.7v-20.9h5.2l.3,2.4c.6-.7,1.2-1.3,2-1.7.7-.4,1.5-.7,2.3-.8s1.5-.2,2.1-.2c2,0,3.6.4,4.7,1.3s1.9,2,2.4,3.5.7,3.1.7,4.9v11.5h-5.5v-10.8c0-.6,0-1.3-.2-1.9-.1-.6-.3-1.2-.6-1.7-.3-.5-.7-.9-1.2-1.3s-1.2-.5-2-.5-1.9.3-2.6.8-1.2,1.2-1.6,2.1-.5,1.9-.5,3v10.3h-5.6Z"/>
    <path class="st0" d="M638.6,140c-2.1,0-4-.4-5.5-1.3-1.5-.9-2.7-2.1-3.5-3.7-.8-1.6-1.2-3.5-1.2-5.6s.4-4.1,1.2-5.7,2-2.9,3.5-3.8,3.4-1.3,5.6-1.3,3.2.3,4.5.9,2.4,1.5,3.2,2.6,1.3,2.5,1.4,4.2h-5.4c-.2-.9-.7-1.6-1.4-2-.7-.4-1.5-.6-2.4-.6s-2.1.3-2.8.9-1.2,1.3-1.5,2.2-.5,1.8-.5,2.7.2,1.9.5,2.7.8,1.6,1.5,2.1c.7.5,1.6.8,2.7.8s1.8-.2,2.5-.6c.7-.4,1.2-1.1,1.4-2h5.5c-.1,1.7-.7,3.1-1.5,4.3-.9,1.1-2,2-3.4,2.5-1.4.6-2.9.8-4.6.8h0Z"/>
    <path class="st0" d="M658.2,140c-.9,0-1.9-.1-2.7-.4s-1.7-.6-2.4-1.2-1.2-1.2-1.6-2c-.4-.8-.6-1.7-.6-2.8s.3-2.6.9-3.4c.6-.9,1.4-1.5,2.3-2,1-.4,2.1-.7,3.4-.9s2.6-.2,4-.2h3c0-.8-.1-1.4-.4-2s-.7-1-1.2-1.4c-.5-.3-1.3-.5-2.1-.5s-1.1,0-1.6.2c-.5.1-.9.3-1.3.6s-.6.6-.7,1h-5.6c.2-1.2.5-2.2,1.1-3,.6-.8,1.3-1.5,2.2-2s1.8-.9,2.9-1.2,2.1-.4,3.2-.4c3,0,5.3.9,6.7,2.6,1.4,1.7,2.2,4.2,2.2,7.3v11.2h-5v-2.7c-.7.9-1.5,1.6-2.3,2s-1.6.7-2.4.8c-.8.1-1.4.2-1.9.2h0ZM659.4,135.6c.9,0,1.8-.2,2.5-.5.8-.4,1.4-.9,1.8-1.5s.7-1.3.7-2.1v-.5h-3.8c-.5,0-1.1,0-1.6,0-.5,0-1,.1-1.4.3-.4.1-.7.4-1,.7-.2.3-.4.7-.4,1.3s.1,1,.4,1.3.7.6,1.1.8c.5.2,1,.3,1.5.3h0Z"/>
    <path class="st0" d="M676.8,116.7c-1,0-1.9-.3-2.5-.9s-.9-1.4-.9-2.4.3-1.9,1-2.5,1.5-.9,2.5-.9,1.7.3,2.4.9,1,1.4,1,2.5-.3,1.8-1,2.4c-.7.6-1.5.9-2.5.9h0ZM674,139.7v-20.9h5.5v20.9h-5.5Z"/>
    <path class="st0" d="M684,139.7v-28h5.5v28h-5.5Z"/>
    <path class="st0" d="M693.9,139.7v-28h5.5v28h-5.5Z"/>
    <path class="st0" d="M713.4,140c-2.2,0-4-.4-5.6-1.3s-2.7-2.1-3.5-3.7c-.8-1.6-1.2-3.5-1.2-5.6s.4-4.1,1.3-5.7,2-2.9,3.6-3.8,3.4-1.4,5.5-1.4,3,.3,4.2.8,2.2,1.3,3,2.2,1.4,2,1.9,3.3c.4,1.2.6,2.6.6,4.1,0,.4,0,.7,0,1.1,0,.3,0,.7-.2,1h-14.3c0,.8.3,1.5.7,2.2.4.7.9,1.2,1.6,1.6s1.5.6,2.5.6,1.3,0,1.8-.2c.5-.1,1-.4,1.4-.7.4-.3.7-.7.8-1.1h5.5c-.3,1.6-1,2.8-1.9,3.8s-2.1,1.7-3.4,2.2c-1.3.5-2.7.7-4.2.7h0ZM708.7,127h9.1c0-.7-.2-1.4-.5-2-.3-.6-.8-1.1-1.5-1.5-.7-.4-1.5-.6-2.5-.6s-1.8.2-2.5.6c-.7.4-1.2.9-1.5,1.5-.3.6-.5,1.3-.6,2h0Z"/>
    <path class="st0" d="M726.6,139.7v-20.9h5l.4,2.5c.5-.8,1.1-1.4,1.8-1.8s1.3-.7,2.1-.8c.7-.1,1.4-.2,2.2-.2s.7,0,.9,0c.3,0,.5,0,.6,0v5.3h-1.3c-1.2,0-2.3.2-3.2.6-.9.4-1.6,1.1-2.1,2s-.7,2-.7,3.4v9.8h-5.5Z"/>
    <path class="st0" d="M744.9,116.7c-1,0-1.9-.3-2.5-.9s-.9-1.4-.9-2.4.3-1.9,1-2.5,1.5-.9,2.5-.9,1.7.3,2.4.9,1,1.4,1,2.5-.3,1.8-1,2.4c-.7.6-1.5.9-2.5.9h0ZM742.2,139.7v-20.9h5.5v20.9h-5.5Z"/>
    <path class="st0" d="M761.7,140c-2.2,0-4-.4-5.6-1.3s-2.7-2.1-3.5-3.7c-.8-1.6-1.2-3.5-1.2-5.6s.4-4.1,1.3-5.7,2-2.9,3.6-3.8,3.4-1.4,5.5-1.4,3,.3,4.2.8,2.2,1.3,3,2.2,1.4,2,1.9,3.3c.4,1.2.6,2.6.6,4.1,0,.4,0,.7,0,1.1,0,.3,0,.7-.2,1h-14.3c0,.8.3,1.5.7,2.2.4.7.9,1.2,1.6,1.6s1.5.6,2.5.6,1.3,0,1.8-.2c.5-.1,1-.4,1.4-.7.4-.3.7-.7.8-1.1h5.5c-.3,1.6-1,2.8-1.9,3.8s-2.1,1.7-3.4,2.2c-1.3.5-2.7.7-4.2.7h0ZM756.9,127h9.1c0-.7-.2-1.4-.5-2-.3-.6-.8-1.1-1.5-1.5-.7-.4-1.5-.6-2.5-.6s-1.8.2-2.5.6c-.7.4-1.2.9-1.5,1.5-.3.6-.5,1.3-.6,2h0Z"/>
    <path class="st0" d="M342.4,180.8c-1.7,0-3.2-.4-4.3-1.2s-2-1.8-2.5-3.2c-.5-1.3-.8-2.8-.8-4.5s.3-3.2.8-4.5c.5-1.3,1.4-2.4,2.5-3.2s2.6-1.2,4.4-1.2,1.4,0,2.1.2,1.3.4,2,.8c.6.3,1.1.8,1.6,1.4v-8.1h2.8v23.3h-2.7v-2.6c-.5.7-1,1.2-1.6,1.6-.6.4-1.3.7-2,.9s-1.5.3-2.2.3h0ZM342.8,178.3c1.2,0,2.1-.3,2.9-.9.8-.6,1.4-1.4,1.8-2.4s.6-2.1.6-3.2-.2-2.3-.6-3.2c-.4-.9-1-1.7-1.8-2.2s-1.8-.8-3-.8-2.3.3-3,.9c-.8.6-1.3,1.3-1.6,2.3s-.5,2.1-.5,3.3,0,1.7.3,2.5c.2.8.5,1.4.9,2s.9,1,1.6,1.4,1.5.5,2.4.5h0Z"/>
    <path class="st0" d="M362.6,180.8c-2.4,0-4.2-.6-5.5-1.9-1.2-1.3-1.9-3.2-1.9-5.9v-9.8h2.8v9.7c0,1.1.2,2.1.5,2.9.3.8.8,1.4,1.5,1.9.7.4,1.5.6,2.5.6s1.9-.2,2.6-.6,1.2-1,1.5-1.9.5-1.8.5-2.9v-9.7h2.8v9.8c0,2.6-.6,4.6-1.9,5.9-1.3,1.3-3.1,1.9-5.5,1.9Z"/>
    <path class="st0" d="M391.5,180.8c-.8,0-1.5,0-2.2-.3s-1.3-.5-1.8-.8-1-.8-1.4-1.2v2.1h-2.8v-23.3h2.8v8.4c.6-.9,1.4-1.5,2.5-2s2.2-.7,3.3-.7c1.8,0,3.2.4,4.3,1.2s1.9,1.8,2.5,3.2c.5,1.3.8,2.8.8,4.5s-.3,3.1-.9,4.5c-.6,1.3-1.4,2.4-2.6,3.2-1.2.8-2.7,1.2-4.5,1.2h0ZM391.5,178.3c1.3,0,2.3-.3,3-.9s1.3-1.4,1.6-2.3.5-2,.5-3.2-.2-2.3-.5-3.2c-.3-1-.9-1.7-1.7-2.3-.8-.6-1.8-.9-3.1-.9s-2.1.3-2.9,1c-.8.6-1.4,1.4-1.8,2.4-.4,1-.6,2-.6,3s.2,2.2.5,3.1c.4,1,.9,1.7,1.7,2.3s1.8.9,3.1.9h0Z"/>
    <path class="st0" d="M408.8,180.8c-.8,0-1.6-.1-2.3-.3s-1.4-.5-2-1-1-1-1.4-1.6c-.3-.6-.5-1.4-.5-2.3s.2-1.8.5-2.5.8-1.2,1.5-1.6,1.3-.7,2.1-.9,1.7-.3,2.5-.3h5.1c0-1-.1-1.8-.4-2.6-.3-.7-.7-1.3-1.3-1.7s-1.4-.6-2.4-.6-1.2,0-1.7.2-1,.3-1.3.6c-.4.3-.6.7-.8,1.1h-3c.1-.8.5-1.5.9-2s1-1,1.6-1.4c.6-.4,1.3-.6,2.1-.8s1.5-.3,2.2-.3c2.5,0,4.3.7,5.3,2.2,1.1,1.5,1.6,3.5,1.6,6v9.4h-2.3l-.2-2.2c-.5.7-1.1,1.2-1.7,1.5s-1.4.6-2.1.7c-.7.1-1.4.2-2,.2h0ZM404.9,160.4l4.4-5.4h2l4.4,5.4h-2.8l-2.6-3.2-2.6,3.2h-2.8ZM409.1,178.3c1.1,0,2-.2,2.8-.5.8-.4,1.4-.9,1.9-1.6.4-.7.7-1.6.7-2.6v-.9h-3.1c-.7,0-1.4,0-2.1,0s-1.3.1-1.9.3-1,.4-1.4.8-.5.9-.5,1.6.2,1.2.5,1.6.8.7,1.3.9,1.1.3,1.8.3h0Z"/>
    <path class="st0" d="M428.6,180.6c-1.3,0-2.4-.2-3.2-.6-.8-.4-1.4-1-1.7-1.8-.4-.8-.5-1.9-.5-3.2v-9.3h-2.8v-2.5h2.8v-5.2h2.8v5.2h4.6v2.5h-4.6v9c0,1.2.2,2.1.6,2.6.4.6,1.3.8,2.6.8h1.3v2.4h-1.9Z"/>
    <path class="st0" d="M435.1,160.6c-.6,0-1-.2-1.4-.5s-.5-.8-.5-1.3.2-1,.5-1.3c.3-.3.8-.5,1.3-.5s.9.2,1.3.5c.4.3.6.8.6,1.3s-.2,1-.6,1.3c-.4.3-.8.5-1.3.5h0ZM433.7,180.6v-17.4h2.8v17.4h-2.8Z"/>
    <path class="st0" d="M441,180.6v-17.4h2.7v2.1c.5-.5.9-1,1.4-1.3.5-.3,1-.6,1.6-.7s1.2-.2,1.9-.2c1.2,0,2.2.3,2.9.8s1.3,1.2,1.7,2c.4-.6.8-1.1,1.4-1.5s1.1-.7,1.7-1,1.4-.3,2.2-.3c1.3,0,2.3.3,3.1.8.8.5,1.3,1.3,1.7,2.2.3.9.5,2,.5,3.1v11.4h-2.8v-10c0-.6,0-1.2,0-1.7s-.2-1.1-.4-1.7-.5-.9-1-1.2-1-.5-1.8-.5-1.3.2-1.8.5c-.5.3-.9.8-1.2,1.4-.3.6-.5,1.2-.7,1.8-.1.6-.2,1.3-.2,1.9v9.5h-2.8v-10c0-.5,0-1.1,0-1.7,0-.6-.2-1.1-.4-1.7-.2-.5-.5-.9-.9-1.2-.4-.3-1-.5-1.8-.5-1.1,0-1.9.3-2.5.9-.6.6-1,1.3-1.2,2.2-.2.9-.3,1.7-.3,2.6v9.4h-2.8Z"/>
    <path class="st0" d="M475.5,180.8c-1.8,0-3.4-.4-4.6-1.1s-2.1-1.8-2.7-3.1-.9-2.9-.9-4.6.3-3.3.9-4.6,1.5-2.4,2.7-3.1c1.2-.8,2.7-1.1,4.4-1.1s2.5.3,3.5.8,1.8,1.2,2.4,2.1c.6.9,1.1,1.8,1.4,2.8s.4,2,.4,3.1c0,.2,0,.4,0,.6,0,.2,0,.4,0,.6h-12.9c0,1,.3,1.9.8,2.7.4.8,1,1.5,1.8,1.9.8.5,1.7.7,2.9.7s1.1,0,1.7-.2c.6-.1,1.1-.4,1.6-.7s.8-.8,1-1.4h2.9c-.3,1.1-.8,2-1.5,2.7-.7.7-1.6,1.2-2.6,1.6s-2.1.5-3.2.5h0ZM470.2,170.5h10.1c0-1-.2-1.9-.7-2.6s-1-1.3-1.7-1.7c-.7-.4-1.6-.6-2.6-.6s-2,.2-2.7.7-1.3,1.1-1.7,1.8c-.4.7-.6,1.6-.7,2.5h0Z"/>
    <path class="st0" d="M486.9,180.6v-17.4h2.7v2.6c.5-.6,1-1.2,1.6-1.6.6-.4,1.3-.7,2-.9s1.5-.3,2.2-.3c1.7,0,3,.3,4,1.1s1.6,1.7,2,2.8c.4,1.2.6,2.6.6,4.1v9.6h-2.8v-8.8c0-.8,0-1.6-.1-2.3s-.3-1.4-.6-2-.7-1.1-1.3-1.4-1.3-.5-2.2-.5-2.1.3-2.9,1c-.8.6-1.4,1.5-1.8,2.6-.4,1.1-.6,2.3-.6,3.6v7.9h-2.8Z"/>
    <path class="st0" d="M512.9,180.8c-1.8,0-3.1-.5-3.8-1.5-.7-1-1.1-2.4-1.1-4.2v-9.4h-2.8v-2.5h2.8v-5.2h2.8v5.2h5.3v2.5h-5.3v9c0,.7,0,1.3.2,1.8.1.5.3,1,.7,1.3.3.3.9.5,1.6.5.5,0,.9,0,1.3-.3s.7-.4,1-.6l1.2,2c-.4.3-.8.6-1.2.8s-.8.3-1.2.4c-.4,0-.9.1-1.4.1h0Z"/>
    <path class="st0" d="M533.9,180.8c-.8,0-1.6-.1-2.3-.3s-1.4-.5-2-1-1-1-1.4-1.6c-.3-.6-.5-1.4-.5-2.3s.2-1.8.5-2.5.8-1.2,1.5-1.6,1.3-.7,2.1-.9,1.7-.3,2.5-.3h5.1c0-1-.1-1.8-.4-2.6-.3-.7-.7-1.3-1.3-1.7-.6-.4-1.4-.6-2.4-.6s-1.2,0-1.7.2-1,.3-1.3.6c-.4.3-.7.7-.8,1.1h-3c.2-.8.5-1.5.9-2,.4-.6,1-1,1.6-1.4.7-.4,1.3-.6,2.1-.8s1.5-.3,2.2-.3c2.5,0,4.3.7,5.3,2.2,1.1,1.5,1.6,3.5,1.6,6v9.4h-2.3l-.2-2.2c-.5.7-1.1,1.2-1.7,1.5s-1.4.6-2.1.7c-.7.1-1.4.2-2,.2h0ZM534.2,178.3c1.1,0,2-.2,2.8-.5s1.4-.9,1.9-1.6c.4-.7.7-1.6.7-2.6v-.9h-3.1c-.7,0-1.4,0-2.1,0s-1.3.1-1.9.3c-.6.1-1,.4-1.4.8-.3.4-.5.9-.5,1.6s.2,1.2.5,1.6.8.7,1.3.9,1.1.3,1.8.3h0ZM534.5,160.4l-3.3-4.6h3l2.8,4.6h-2.5Z"/>
    <path class="st0" d="M555.6,180.6v-23.3h2.8v23.3h-2.8Z"/>
    <path class="st0" d="M564.3,164.2l-.8-1.1c.3-.2.6-.5.9-.8.3-.3.5-.6.7-1s.4-.7.4-1.1c-.6,0-1-.2-1.4-.6s-.5-.8-.5-1.3.2-1.1.6-1.4.9-.5,1.5-.5,1.3.3,1.6.8.4,1.1.4,1.8-.2,1.4-.5,2.1c-.3.7-.7,1.3-1.2,1.8s-1.1.9-1.6,1.1h0Z"/>
    <path class="st0" d="M574.1,160.6c-.6,0-1-.2-1.4-.5s-.5-.8-.5-1.3.2-1,.5-1.3c.3-.3.8-.5,1.3-.5s.9.2,1.3.5c.4.3.6.8.6,1.3s-.2,1-.6,1.3c-.4.3-.8.5-1.3.5h0ZM572.7,180.6v-17.4h2.8v17.4h-2.8Z"/>
    <path class="st0" d="M580,180.6v-17.4h2.7v2.6c.5-.6,1-1.2,1.6-1.6.6-.4,1.3-.7,2-.9.7-.2,1.5-.3,2.2-.3,1.7,0,3,.3,4,1.1s1.6,1.7,2,2.8c.4,1.2.6,2.6.6,4.1v9.6h-2.8v-8.8c0-.8,0-1.6-.2-2.3s-.3-1.4-.6-2-.7-1.1-1.3-1.4c-.5-.3-1.3-.5-2.2-.5s-2.1.3-2.9,1-1.4,1.5-1.8,2.6c-.4,1.1-.6,2.3-.6,3.6v7.9h-2.8Z"/>
    <path class="st0" d="M606.4,180.8c-1.7,0-3.2-.4-4.3-1.2s-2-1.8-2.5-3.2-.8-2.8-.8-4.5.3-3.2.8-4.5c.5-1.3,1.4-2.4,2.5-3.2s2.6-1.2,4.4-1.2,1.4,0,2.1.2,1.3.4,2,.8c.6.3,1.1.8,1.6,1.4v-8.1h2.8v23.3h-2.7v-2.6c-.5.7-1,1.2-1.6,1.6-.6.4-1.3.7-2,.9s-1.5.3-2.2.3h0ZM606.8,178.3c1.2,0,2.1-.3,2.9-.9.8-.6,1.4-1.4,1.8-2.4s.6-2.1.6-3.2-.2-2.3-.6-3.2c-.4-.9-1-1.7-1.8-2.2s-1.8-.8-3-.8-2.3.3-3,.9-1.3,1.3-1.6,2.3-.5,2.1-.5,3.3,0,1.7.3,2.5c.2.8.5,1.4.9,2,.4.6.9,1,1.6,1.4s1.5.5,2.4.5h0Z"/>
    <path class="st0" d="M626.6,180.8c-2.4,0-4.2-.6-5.5-1.9-1.2-1.3-1.9-3.2-1.9-5.9v-9.8h2.8v9.7c0,1.1.2,2.1.5,2.9.3.8.8,1.4,1.5,1.9.7.4,1.5.6,2.5.6s1.9-.2,2.6-.6,1.2-1,1.5-1.9.5-1.8.5-2.9v-9.7h2.8v9.8c0,2.6-.6,4.6-1.9,5.9-1.3,1.3-3.1,1.9-5.5,1.9h0Z"/>
    <path class="st0" d="M644.7,180.8c-.8,0-1.6,0-2.4-.2s-1.5-.4-2.2-.8-1.3-.9-1.7-1.5c-.5-.6-.8-1.4-.9-2.4h2.8c.2.6.6,1.1,1.1,1.4.5.4,1.1.6,1.7.8.6.1,1.2.2,1.8.2s.8,0,1.2,0c.5,0,.9-.1,1.3-.3s.8-.4,1.1-.7c.3-.3.4-.8.4-1.4s0-.8-.3-1.1-.5-.5-.8-.7c-.3-.2-.8-.3-1.3-.4-1-.2-2.1-.4-3.3-.6-1.2-.2-2.2-.6-3.1-1.1-.3-.2-.6-.4-.8-.7-.2-.2-.5-.5-.6-.9-.2-.3-.3-.7-.4-1.1,0-.4-.2-.8-.2-1.3,0-.9.2-1.6.5-2.2.3-.6.8-1.1,1.4-1.5.6-.4,1.3-.7,2.1-.9s1.7-.3,2.6-.3,2.2.2,3.1.5c.9.4,1.7.9,2.3,1.6s.9,1.5,1.1,2.6h-2.6c-.2-.6-.6-1.2-1.2-1.6s-1.5-.6-2.6-.6-.7,0-1.2,0-.9.2-1.2.3-.7.4-1,.7c-.3.3-.4.7-.4,1.3s.1.9.4,1.2.6.6,1.1.8,1,.4,1.6.5c.8.1,1.6.3,2.5.5s1.6.3,2.2.5c.7.2,1.3.5,1.8.9.5.4.8.9,1.1,1.4s.3,1.2.3,1.9c0,1-.2,1.9-.6,2.5-.4.7-.9,1.2-1.6,1.5-.7.4-1.4.6-2.3.8s-1.6.2-2.5.2h0Z"/>
    <path class="st0" d="M661.9,180.6c-1.3,0-2.4-.2-3.2-.6-.8-.4-1.4-1-1.7-1.8-.4-.8-.5-1.9-.5-3.2v-9.3h-2.8v-2.5h2.8v-5.2h2.8v5.2h4.6v2.5h-4.6v9c0,1.2.2,2.1.6,2.6s1.3.8,2.6.8h1.3v2.4h-1.9Z"/>
    <path class="st0" d="M667.1,180.6v-17.4h2.7v2.7c.6-.7,1.1-1.2,1.7-1.6s1.2-.7,1.9-.9,1.5-.3,2.3-.3h.9v2.6h-1c-1.4,0-2.5.3-3.3.9-.8.6-1.5,1.4-1.8,2.3-.4,1-.6,2.1-.6,3.2v8.5h-2.8Z"/>
    <path class="st0" d="M680.7,160.6c-.6,0-1-.2-1.4-.5s-.5-.8-.5-1.3.2-1,.5-1.3c.3-.3.8-.5,1.3-.5s.9.2,1.3.5c.4.3.6.8.6,1.3s-.2,1-.6,1.3c-.4.3-.8.5-1.3.5h0ZM679.4,180.6v-17.4h2.8v17.4h-2.8Z"/>
    <path class="st0" d="M694.1,180.8c-1.8,0-3.4-.4-4.6-1.1s-2.1-1.8-2.7-3.1-.9-2.9-.9-4.6.3-3.3.9-4.6,1.5-2.4,2.7-3.1c1.2-.8,2.7-1.1,4.4-1.1s2.5.3,3.5.8,1.8,1.2,2.4,2.1c.6.9,1.1,1.8,1.4,2.8.3,1,.4,2,.4,3.1,0,.2,0,.4,0,.6,0,.2,0,.4,0,.6h-12.9c0,1,.3,1.9.8,2.7.4.8,1,1.5,1.8,1.9.8.5,1.7.7,2.9.7s1.1,0,1.7-.2c.6-.1,1.1-.4,1.6-.7.5-.3.8-.8,1-1.4h2.9c-.3,1.1-.8,2-1.5,2.7-.7.7-1.6,1.2-2.6,1.6s-2.1.5-3.2.5h0ZM688.8,170.5h10.1c0-1-.2-1.9-.7-2.6s-1-1.3-1.7-1.7-1.6-.6-2.6-.6-2,.2-2.7.7-1.3,1.1-1.7,1.8c-.4.7-.6,1.6-.7,2.5h0Z"/>
  </g>
</svg>