<?xml version="1.0" encoding="UTF-8"?>
<svg id="Calque_1" xmlns="http://www.w3.org/2000/svg" version="1.1" viewBox="0 0 539 234">
  <!-- Generator: Adobe Illustrator 30.2.1, SVG Export Plug-In . SVG Version: 2.1.1 Build 1)  -->
  <defs>
    <style>
      .st0 {
        fill: #00569d;
      }

      .st1 {
        fill: #ffd008;
      }
    </style>
  </defs>
  <g>
    <path class="st0" d="M73.9,187.1v-25.3h3.1v22.5h13.9v2.8h-17Z"/>
    <path class="st0" d="M100.2,187.3c-.9,0-1.7-.1-2.5-.3-.8-.2-1.5-.6-2.1-1-.6-.5-1.1-1-1.5-1.7s-.5-1.5-.5-2.4.2-2,.6-2.7.9-1.3,1.6-1.7,1.4-.7,2.3-.9c.9-.2,1.8-.3,2.8-.3h5.5c0-1.1-.1-2-.4-2.8-.3-.8-.8-1.4-1.4-1.8s-1.5-.7-2.6-.7-1.3,0-1.9.2-1.1.4-1.5.7-.7.7-.9,1.2h-3.3c.2-.9.5-1.6,1-2.2.5-.6,1.1-1.1,1.8-1.5s1.5-.7,2.3-.9,1.6-.3,2.4-.3c2.7,0,4.6.8,5.8,2.4,1.1,1.6,1.7,3.8,1.7,6.5v10.2h-2.5l-.2-2.4c-.5.7-1.2,1.3-1.9,1.6-.7.4-1.5.6-2.3.8s-1.5.2-2.2.2h0ZM100.5,184.6c1.2,0,2.2-.2,3.1-.6.9-.4,1.5-1,2-1.7s.7-1.7.7-2.8v-.9h-3.3c-.8,0-1.6,0-2.3,0-.8,0-1.5.1-2.1.3s-1.1.4-1.5.9c-.4.4-.5,1-.5,1.7s.2,1.3.5,1.7.9.8,1.5,1c.6.2,1.2.3,1.9.3h0Z"/>
    <path class="st0" d="M130.5,187.3c-.9,0-1.7,0-2.6-.2s-1.7-.4-2.4-.9-1.4-.9-1.9-1.6c-.5-.7-.8-1.5-1-2.6h3.1c.2.6.6,1.2,1.2,1.6.5.4,1.1.7,1.8.8.7.2,1.3.2,1.9.2s.8,0,1.3,0,1-.2,1.4-.3.8-.4,1.1-.8c.3-.4.4-.9.4-1.5s-.1-.9-.3-1.2-.5-.6-.9-.8-.8-.4-1.4-.4c-1.1-.2-2.3-.5-3.6-.7s-2.4-.6-3.4-1.2c-.3-.2-.6-.5-.9-.7s-.5-.6-.7-.9c-.2-.4-.3-.7-.4-1.1s-.2-.9-.2-1.4c0-.9.2-1.7.5-2.4.4-.7.9-1.2,1.6-1.7s1.4-.8,2.3-1,1.8-.3,2.8-.3,2.4.2,3.3.6,1.8,1,2.4,1.7,1,1.7,1.1,2.8h-2.8c-.2-.7-.6-1.3-1.4-1.7s-1.7-.7-2.8-.7-.8,0-1.3,0-.9.2-1.4.4c-.4.2-.8.4-1.1.8s-.4.8-.4,1.4.1,1,.4,1.3c.3.4.7.6,1.2.9s1.1.4,1.7.5c.8.2,1.7.3,2.8.5,1,.2,1.8.4,2.4.5.8.2,1.4.6,1.9,1,.5.4.9.9,1.1,1.5.2.6.4,1.3.4,2.1,0,1.1-.2,2-.7,2.8s-1,1.3-1.8,1.7c-.7.4-1.6.7-2.4.9-.9.2-1.8.2-2.7.2h0Z"/>
    <path class="st0" d="M150.1,187.3c-2,0-3.6-.4-5-1.2-1.3-.8-2.3-2-3-3.4-.7-1.5-1-3.1-1-5s.3-3.5,1-5,1.7-2.6,3-3.4,3-1.2,5-1.2,3.6.4,5,1.2,2.3,2,3,3.4,1,3.1,1,5-.3,3.5-1,5c-.7,1.5-1.7,2.6-3,3.4-1.3.8-3,1.2-5,1.2h0ZM150.1,184.6c1.4,0,2.5-.3,3.4-.9.9-.6,1.5-1.5,1.9-2.5.4-1,.6-2.2.6-3.5s-.2-2.5-.6-3.5c-.4-1-1.1-1.9-1.9-2.5-.9-.6-2-.9-3.4-.9s-2.5.3-3.3.9c-.9.6-1.5,1.5-1.9,2.5-.4,1-.6,2.2-.6,3.5s.2,2.5.6,3.5c.4,1,1.1,1.9,1.9,2.5s2,.9,3.3.9Z"/>
    <path class="st0" d="M163.2,187.1v-25.3h3v25.3h-3Z"/>
    <path class="st0" d="M178.9,187.3c-2.6,0-4.6-.7-5.9-2.1-1.3-1.4-2-3.5-2-6.4v-10.6h3v10.5c0,1.2.2,2.3.5,3.2.4.9.9,1.6,1.6,2,.7.5,1.6.7,2.7.7s2.1-.2,2.8-.7,1.3-1.1,1.6-2,.5-1.9.5-3.2v-10.5h3v10.6c0,2.9-.7,5-2.1,6.4-1.4,1.4-3.4,2.1-6,2.1h0Z"/>
    <path class="st0" d="M199.3,187.1c-1.4,0-2.6-.2-3.4-.6s-1.5-1.1-1.9-2c-.4-.9-.6-2-.6-3.4v-10.1h-3.1v-2.7h3.1v-5.6h3v5.6h5v2.7h-5v9.8c0,1.3.2,2.2.7,2.8.5.6,1.4.9,2.8.9h1.4v2.6h-2Z"/>
    <path class="st0" d="M206.4,165.4c-.6,0-1.1-.2-1.5-.6-.4-.4-.5-.9-.5-1.5s.2-1.1.6-1.4.9-.5,1.5-.5,1,.2,1.4.6.6.9.6,1.4-.2,1.1-.6,1.5-.9.6-1.5.6ZM204.9,187.1v-18.9h3v18.9h-3Z"/>
    <path class="st0" d="M220.9,187.3c-2,0-3.6-.4-5-1.2-1.3-.8-2.3-2-3-3.4-.7-1.5-1-3.1-1-5s.3-3.5,1-5,1.7-2.6,3-3.4,3-1.2,5-1.2,3.6.4,5,1.2,2.3,2,3,3.4,1,3.1,1,5-.3,3.5-1,5c-.7,1.5-1.7,2.6-3,3.4-1.3.8-3,1.2-5,1.2h0ZM220.9,184.6c1.4,0,2.5-.3,3.4-.9.9-.6,1.5-1.5,1.9-2.5.4-1,.6-2.2.6-3.5s-.2-2.5-.6-3.5c-.4-1-1.1-1.9-1.9-2.5-.9-.6-2-.9-3.4-.9s-2.5.3-3.3.9c-.9.6-1.5,1.5-1.9,2.5-.4,1-.6,2.2-.6,3.5s.2,2.5.6,3.5c.4,1,1.1,1.9,1.9,2.5s2,.9,3.3.9Z"/>
    <path class="st0" d="M234,187.1v-18.9h2.9v2.9c.6-.7,1.1-1.3,1.8-1.7.7-.4,1.4-.8,2.2-1s1.6-.3,2.3-.3c1.8,0,3.3.4,4.3,1.1s1.8,1.8,2.2,3.1.7,2.8.7,4.4v10.4h-3v-9.6c0-.9,0-1.7-.2-2.5s-.3-1.5-.6-2.2c-.3-.6-.8-1.1-1.4-1.5s-1.4-.5-2.4-.5-2.3.4-3.2,1c-.9.7-1.5,1.6-2,2.8s-.7,2.5-.7,3.9v8.6h-3,0Z"/>
    <path class="st0" d="M277.9,194.1v-9.1c-.7.9-1.6,1.5-2.6,1.8-1,.3-2,.5-3,.5-1.4,0-2.7-.2-3.8-.7-1.1-.5-2-1.2-2.7-2-.7-.9-1.2-1.9-1.6-3s-.5-2.4-.5-3.8c0-1.9.4-3.6,1-5.1s1.7-2.6,3-3.5,2.9-1.2,4.7-1.2,2.1.2,3.1.5,1.8.9,2.4,1.7l.2-1.9h4.6v25.9h-5,0ZM273.4,182.8c1,0,1.8-.2,2.5-.7s1.2-1.1,1.5-1.9c.4-.8.5-1.6.5-2.6s-.2-1.8-.5-2.6c-.4-.8-.9-1.4-1.5-1.9-.7-.5-1.5-.7-2.6-.7s-1.9.2-2.6.7c-.7.5-1.2,1.1-1.5,1.9s-.5,1.6-.5,2.5.1,1.8.5,2.6.8,1.4,1.5,1.9c.7.5,1.5.7,2.6.7h0Z"/>
    <path class="st0" d="M295.4,187.3c-2.8,0-4.9-.7-6.4-2.1-1.5-1.4-2.2-3.6-2.2-6.4v-10.6h5v10.2c0,.9.1,1.6.4,2.3.2.7.6,1.2,1.2,1.6.5.4,1.2.6,2.1.6s1.6-.2,2.1-.6.8-.9,1-1.6c.2-.7.3-1.4.3-2.2v-10.2h5v10.6c0,3-.7,5.1-2.2,6.5s-3.6,2-6.2,2h0Z"/>
    <path class="st0" d="M310.3,166.3c-.9,0-1.7-.3-2.2-.8s-.9-1.3-.9-2.2.3-1.7.9-2.2c.6-.6,1.3-.9,2.2-.9s1.6.3,2.2.8c.6.6.9,1.3.9,2.2s-.3,1.6-.9,2.2c-.6.6-1.3.8-2.2.8h0ZM307.8,187.1v-18.9h5v18.9h-5Z"/>
    <path class="st0" d="M316.8,187.1v-18.9h4.7l.2,2.2c.5-.6,1.1-1.1,1.8-1.5s1.4-.6,2.1-.8c.7-.1,1.3-.2,1.9-.2,1.8,0,3.2.4,4.2,1.2,1,.8,1.7,1.8,2.2,3.2s.7,2.8.7,4.4v10.4h-5v-9.8c0-.6,0-1.1-.1-1.7-.1-.6-.3-1.1-.5-1.6s-.6-.9-1.1-1.1-1-.4-1.8-.4-1.7.2-2.4.7c-.6.5-1.1,1.1-1.4,1.9s-.5,1.7-.5,2.7v9.3h-5Z"/>
    <path class="st0" d="M346.9,187.3c-1.9,0-3.6-.4-5-1.2s-2.4-1.9-3.1-3.3c-.7-1.4-1.1-3.1-1.1-5.1s.4-3.7,1.1-5.2,1.8-2.6,3.2-3.4c1.4-.8,3.1-1.2,5.1-1.2s2.9.3,4.1.8c1.2.5,2.1,1.3,2.9,2.4.7,1,1.1,2.3,1.3,3.8h-4.9c-.2-.8-.6-1.4-1.2-1.8-.6-.4-1.3-.6-2.2-.6s-1.9.3-2.6.8-1.1,1.2-1.4,2-.4,1.6-.4,2.4.1,1.7.4,2.5.7,1.4,1.4,1.9c.6.5,1.5.7,2.5.7s1.6-.2,2.2-.6,1.1-1,1.2-1.8h5c-.1,1.5-.6,2.8-1.4,3.9-.8,1-1.8,1.8-3.1,2.3-1.2.5-2.6.8-4.1.8h0Z"/>
    <path class="st0" d="M364.6,187.3c-.9,0-1.7-.1-2.5-.3s-1.5-.6-2.1-1.1-1.1-1.1-1.5-1.8c-.4-.7-.5-1.5-.5-2.5s.3-2.3.8-3.1,1.2-1.4,2.1-1.8c.9-.4,1.9-.7,3.1-.8s2.4-.2,3.6-.2h2.7c0-.7-.1-1.3-.4-1.8-.2-.5-.6-.9-1.1-1.2s-1.1-.4-1.9-.4-1,0-1.4.2c-.5.1-.8.3-1.2.5-.3.2-.5.5-.6.9h-5.1c.1-1,.5-1.9,1-2.7s1.2-1.4,2-1.8c.8-.5,1.6-.8,2.6-1.1s1.9-.3,2.9-.3c2.7,0,4.8.8,6.1,2.3s2,3.8,2,6.6v10.2h-4.5v-2.4c-.7.8-1.3,1.4-2.1,1.8s-1.5.6-2.2.7c-.7,0-1.2.1-1.7.1h0ZM365.7,183.4c.8,0,1.6-.2,2.3-.5s1.2-.8,1.6-1.4.6-1.2.6-1.9v-.5h-3.4c-.5,0-1,0-1.4,0s-.9.1-1.2.3-.7.3-.9.6c-.2.3-.3.7-.3,1.1s.1.9.4,1.2c.2.3.6.6,1,.7s.9.2,1.4.2h0Z"/>
    <path class="st0" d="M381.4,166.3c-.9,0-1.7-.3-2.2-.8s-.9-1.3-.9-2.2.3-1.7.9-2.2c.6-.6,1.3-.9,2.2-.9s1.6.3,2.2.8c.6.6.9,1.3.9,2.2s-.3,1.6-.9,2.2c-.6.6-1.3.8-2.2.8h0ZM378.9,187.1v-18.9h5v18.9h-5Z"/>
    <path class="st0" d="M387.9,187.1v-25.3h5v25.3h-5Z"/>
    <path class="st0" d="M396.9,187.1v-25.3h5v25.3h-5Z"/>
    <path class="st0" d="M414.5,187.3c-2,0-3.7-.4-5-1.2-1.4-.8-2.4-1.9-3.2-3.3-.7-1.4-1.1-3.1-1.1-5.1s.4-3.7,1.1-5.1c.8-1.5,1.8-2.6,3.2-3.4s3-1.2,5-1.2,2.7.2,3.8.7c1.1.5,2,1.1,2.8,2,.7.9,1.3,1.9,1.7,3s.5,2.4.5,3.7c0,.3,0,.7,0,1,0,.3,0,.6-.1.9h-12.9c0,.7.3,1.4.6,2,.3.6.8,1.1,1.4,1.4s1.4.5,2.3.5,1.1,0,1.6-.2.9-.3,1.3-.6c.4-.3.6-.6.7-1h4.9c-.3,1.4-.9,2.6-1.7,3.5-.8.9-1.9,1.6-3.1,2s-2.4.6-3.8.6h0ZM410.2,175.7h8.2c0-.6-.2-1.2-.5-1.8-.3-.6-.7-1-1.3-1.4-.6-.4-1.3-.5-2.2-.5s-1.7.2-2.3.5-1.1.8-1.4,1.4-.5,1.1-.5,1.8h0Z"/>
    <path class="st0" d="M426.4,187.1v-18.9h4.5l.3,2.2c.5-.7,1-1.3,1.6-1.6.6-.4,1.2-.6,1.9-.7.6-.1,1.3-.2,2-.2s.6,0,.9,0c.3,0,.5,0,.6,0v4.8h-1.2c-1.1,0-2.1.2-2.9.6s-1.5,1-1.9,1.8-.7,1.8-.7,3.1v8.8h-5,0Z"/>
    <path class="st0" d="M443,166.3c-.9,0-1.7-.3-2.2-.8s-.9-1.3-.9-2.2.3-1.7.9-2.2c.6-.6,1.3-.9,2.2-.9s1.6.3,2.2.8c.6.6.9,1.3.9,2.2s-.3,1.6-.9,2.2c-.6.6-1.3.8-2.2.8h0ZM440.5,187.1v-18.9h5v18.9h-5Z"/>
    <path class="st0" d="M458.1,187.3c-2,0-3.7-.4-5-1.2-1.4-.8-2.4-1.9-3.2-3.3-.7-1.4-1.1-3.1-1.1-5.1s.4-3.7,1.1-5.1c.8-1.5,1.8-2.6,3.2-3.4s3-1.2,5-1.2,2.7.2,3.8.7c1.1.5,2,1.1,2.8,2,.7.9,1.3,1.9,1.7,3s.5,2.4.5,3.7c0,.3,0,.7,0,1,0,.3,0,.6-.1.9h-12.9c0,.7.3,1.4.6,2,.3.6.8,1.1,1.4,1.4s1.4.5,2.3.5,1.1,0,1.6-.2.9-.3,1.3-.6c.4-.3.6-.6.7-1h4.9c-.3,1.4-.9,2.6-1.7,3.5-.8.9-1.9,1.6-3.1,2s-2.4.6-3.8.6h0ZM453.9,175.7h8.2c0-.6-.2-1.2-.5-1.8-.3-.6-.7-1-1.3-1.4-.6-.4-1.3-.5-2.2-.5s-1.7.2-2.3.5-1.1.8-1.4,1.4-.5,1.1-.5,1.8h0Z"/>
    <path class="st0" d="M110.5,224.3c-1.6,0-2.9-.4-3.9-1.1-1-.7-1.8-1.7-2.3-2.9s-.7-2.6-.7-4.1.2-2.9.7-4.1,1.3-2.2,2.3-2.9c1-.7,2.4-1.1,4-1.1s1.2,0,1.9.2c.6.1,1.2.4,1.8.7s1,.7,1.4,1.2v-7.3h2.5v21.1h-2.4v-2.4c-.5.6-.9,1.1-1.5,1.4s-1.1.6-1.8.8c-.7.2-1.3.3-2,.3h0ZM110.9,222c1,0,1.9-.3,2.6-.8s1.3-1.2,1.6-2.1c.4-.9.6-1.9.6-2.9s-.2-2.1-.5-2.9c-.4-.8-.9-1.5-1.6-2s-1.6-.7-2.7-.7-2,.3-2.7.8-1.2,1.2-1.5,2.1-.5,1.9-.5,3,0,1.5.2,2.2c.2.7.4,1.3.8,1.8.4.5.8.9,1.4,1.2s1.3.4,2.2.4h0Z"/>
    <path class="st0" d="M128.8,224.3c-2.2,0-3.8-.6-4.9-1.7-1.1-1.1-1.7-2.9-1.7-5.3v-8.9h2.5v8.7c0,1,.1,1.9.4,2.7s.7,1.3,1.4,1.7,1.4.6,2.3.6,1.7-.2,2.4-.6,1.1-.9,1.4-1.7c.3-.7.4-1.6.4-2.7v-8.7h2.5v8.9c0,2.4-.6,4.2-1.7,5.3s-2.8,1.7-5,1.7h0Z"/>
    <path class="st0" d="M154.9,224.3c-.7,0-1.4,0-2-.2-.6-.2-1.1-.4-1.6-.7-.5-.3-.9-.7-1.3-1.1v1.9h-2.5v-21.1h2.5v7.6c.5-.8,1.3-1.4,2.2-1.8,1-.4,1.9-.6,3-.6,1.6,0,2.9.4,3.9,1.1,1,.7,1.8,1.7,2.2,2.9s.7,2.6.7,4.1-.3,2.8-.8,4.1-1.3,2.2-2.4,2.9c-1,.7-2.4,1.1-4.1,1.1h0ZM154.8,222c1.1,0,2.1-.3,2.7-.8.7-.5,1.2-1.2,1.5-2.1s.5-1.8.5-2.9-.1-2-.5-2.9-.8-1.6-1.5-2.1c-.7-.5-1.6-.8-2.8-.8s-1.9.3-2.6.9c-.7.6-1.3,1.3-1.7,2.2-.4.9-.6,1.8-.6,2.7s.2,2,.5,2.8.8,1.6,1.6,2.1,1.7.8,2.8.8h0Z"/>
    <path class="st0" d="M170.5,224.3c-.7,0-1.4,0-2.1-.3s-1.3-.5-1.8-.9-.9-.9-1.2-1.5c-.3-.6-.5-1.3-.5-2s.2-1.6.5-2.3.8-1.1,1.3-1.5,1.2-.6,1.9-.8,1.5-.2,2.3-.2h4.6c0-.9-.1-1.7-.4-2.3s-.6-1.2-1.2-1.5c-.6-.4-1.3-.5-2.2-.5s-1.1,0-1.5.2-.9.3-1.2.6c-.3.3-.6.6-.7,1h-2.7c.1-.7.4-1.3.8-1.8s.9-.9,1.5-1.2c.6-.3,1.2-.6,1.9-.7.7-.2,1.3-.2,2-.2,2.3,0,3.9.7,4.8,2,1,1.3,1.4,3.1,1.4,5.4v8.5h-2.1v-2c-.6.6-1.1,1-1.7,1.4s-1.2.5-1.9.6c-.6.1-1.3.2-1.8.2h0ZM167,205.8l4-4.9h1.8l4,4.9h-2.6l-2.3-2.9-2.3,2.9h-2.5ZM170.7,222c1,0,1.8-.2,2.6-.5s1.3-.8,1.7-1.4c.4-.6.6-1.4.6-2.3v-.8h-2.8c-.7,0-1.3,0-1.9,0s-1.2.1-1.7.2c-.5.1-.9.4-1.2.7-.3.3-.5.8-.5,1.5s.1,1.1.5,1.5c.3.4.7.7,1.2.8.5.2,1,.3,1.6.3h0Z"/>
    <path class="st0" d="M188.4,224.1c-1.2,0-2.1-.2-2.9-.5-.7-.4-1.2-.9-1.6-1.7s-.5-1.7-.5-2.9v-8.4h-2.6v-2.2h2.6v-4.7h2.5v4.7h4.2v2.2h-4.2v8.1c0,1.1.2,1.9.6,2.4s1.2.8,2.4.8h1.2v2.2h-1.7,0Z"/>
    <path class="st0" d="M194.3,206c-.5,0-.9-.2-1.2-.5-.3-.3-.5-.7-.5-1.2s.2-.9.5-1.2c.3-.3.7-.5,1.2-.5s.9.2,1.2.5c.4.3.5.7.5,1.2s-.2.9-.5,1.2-.7.5-1.2.5h0ZM193.1,224.1v-15.7h2.5v15.7h-2.5Z"/>
    <path class="st0" d="M199.6,224.1v-15.7h2.4v1.9c.5-.5.8-.9,1.3-1.2.4-.3.9-.5,1.4-.7s1.1-.2,1.7-.2c1.1,0,2,.2,2.6.7.7.5,1.2,1.1,1.5,1.8.4-.5.8-1,1.2-1.4.5-.4,1-.7,1.6-.9s1.2-.3,1.9-.3c1.1,0,2.1.2,2.8.7s1.2,1.2,1.5,2c.3.8.5,1.8.5,2.8v10.3h-2.5v-9c0-.5,0-1,0-1.6s-.2-1-.4-1.5-.5-.8-.9-1.1-.9-.4-1.6-.4-1.2.1-1.7.5c-.4.3-.8.7-1.1,1.2s-.5,1.1-.6,1.7c-.1.6-.2,1.2-.2,1.7v8.6h-2.5v-9c0-.5,0-1,0-1.5,0-.5-.2-1-.3-1.5s-.4-.8-.8-1.1-.9-.4-1.6-.4-1.7.3-2.2.8c-.5.5-.9,1.2-1.1,2-.2.8-.3,1.6-.3,2.3v8.5h-2.5,0Z"/>
    <path class="st0" d="M230.8,224.3c-1.7,0-3-.3-4.1-1-1.1-.7-1.9-1.6-2.4-2.8s-.8-2.6-.8-4.1.3-3,.8-4.2,1.4-2.1,2.5-2.8c1.1-.7,2.4-1,4-1s2.3.2,3.2.7c.9.5,1.6,1.1,2.2,1.9.6.8,1,1.6,1.2,2.5s.4,1.8.3,2.8c0,.2,0,.4,0,.5s0,.4,0,.5h-11.7c0,.9.3,1.7.7,2.5.4.7.9,1.3,1.6,1.7.7.4,1.6.6,2.6.6s1,0,1.6-.2c.5-.1,1-.4,1.4-.7.4-.3.7-.7.9-1.3h2.6c-.2,1-.7,1.8-1.3,2.5s-1.4,1.1-2.4,1.4-1.9.5-2.9.5h0ZM226,214.9h9.1c0-.9-.2-1.7-.6-2.4s-.9-1.2-1.5-1.6-1.4-.6-2.3-.6-1.8.2-2.5.6c-.7.4-1.2,1-1.5,1.6s-.6,1.4-.7,2.2h0Z"/>
    <path class="st0" d="M241.1,224.1v-15.7h2.4v2.4c.5-.6.9-1,1.5-1.4.6-.4,1.2-.7,1.8-.8.7-.2,1.3-.3,1.9-.3,1.5,0,2.7.3,3.6.9.9.6,1.5,1.5,1.8,2.6s.5,2.3.5,3.7v8.7h-2.5v-8c0-.7,0-1.4-.1-2.1s-.3-1.3-.5-1.8c-.3-.5-.6-1-1.1-1.3s-1.2-.5-2-.5-1.9.3-2.6.9-1.3,1.3-1.6,2.3c-.4,1-.5,2.1-.5,3.3v7.2h-2.5,0Z"/>
    <path class="st0" d="M264.6,224.3c-1.6,0-2.8-.4-3.5-1.3s-1-2.2-1-3.8v-8.5h-2.6v-2.2h2.6v-4.7h2.5v4.7h4.8v2.2h-4.8v8.2c0,.6,0,1.1.1,1.6s.3.9.6,1.2c.3.3.8.4,1.4.5.5,0,.9,0,1.2-.2s.6-.4.9-.6l1.1,1.8c-.3.3-.7.5-1.1.7s-.7.3-1.1.4-.8.1-1.3.1h0Z"/>
    <path class="st0" d="M283.6,224.3c-.7,0-1.4,0-2.1-.3s-1.3-.5-1.8-.9-1-.9-1.2-1.5c-.3-.6-.5-1.3-.5-2s.2-1.6.5-2.3.8-1.1,1.3-1.5,1.2-.6,1.9-.8,1.5-.2,2.3-.2h4.6c0-.9-.1-1.7-.4-2.3s-.6-1.2-1.2-1.5-1.3-.5-2.2-.5-1.1,0-1.5.2c-.5.1-.9.3-1.2.6-.3.3-.6.6-.7,1h-2.7c.1-.7.4-1.3.8-1.8s.9-.9,1.5-1.2c.6-.3,1.2-.6,1.9-.7.7-.2,1.3-.2,2-.2,2.3,0,3.9.7,4.8,2,1,1.3,1.4,3.1,1.4,5.4v8.5h-2.1v-2c-.6.6-1.1,1-1.7,1.4s-1.2.5-1.9.6c-.6.1-1.3.2-1.8.2h0ZM283.9,222c1,0,1.8-.2,2.6-.5.7-.3,1.3-.8,1.7-1.4.4-.6.6-1.4.6-2.3v-.8h-2.8c-.7,0-1.3,0-1.9,0s-1.2.1-1.7.2c-.5.1-.9.4-1.2.7s-.5.8-.5,1.5.1,1.1.5,1.5.7.7,1.2.8c.5.2,1,.3,1.6.3h0ZM284.1,205.8l-3-4.2h2.7l2.5,4.2h-2.3Z"/>
    <path class="st0" d="M303.2,224.1v-21.1h2.5v21.1h-2.5Z"/>
    <path class="st0" d="M311,209.2l-.7-1c.3-.2.5-.4.8-.7s.5-.6.6-.9c.2-.3.3-.6.4-.9-.5,0-.9-.2-1.2-.5-.3-.3-.5-.7-.5-1.2s.2-1,.5-1.3.8-.4,1.3-.4,1.1.2,1.4.7c.3.5.4,1,.4,1.6s-.1,1.3-.4,1.9c-.3.6-.7,1.2-1.1,1.7s-1,.8-1.5,1h0Z"/>
    <path class="st0" d="M320,206c-.5,0-.9-.2-1.2-.5-.3-.3-.5-.7-.5-1.2s.2-.9.5-1.2c.3-.3.7-.5,1.2-.5s.9.2,1.2.5c.4.3.5.7.5,1.2s-.2.9-.5,1.2-.7.5-1.2.5h0ZM318.7,224.1v-15.7h2.5v15.7h-2.5Z"/>
    <path class="st0" d="M325.2,224.1v-15.7h2.4v2.4c.5-.6.9-1,1.5-1.4.6-.4,1.2-.7,1.8-.8.7-.2,1.3-.3,1.9-.3,1.5,0,2.7.3,3.6.9.9.6,1.5,1.5,1.8,2.6s.5,2.3.5,3.7v8.7h-2.5v-8c0-.7,0-1.4-.1-2.1s-.3-1.3-.5-1.8c-.3-.5-.6-1-1.1-1.3s-1.2-.5-2-.5-1.9.3-2.6.9-1.3,1.3-1.6,2.3c-.4,1-.5,2.1-.5,3.3v7.2h-2.5,0Z"/>
    <path class="st0" d="M349.2,224.3c-1.6,0-2.9-.4-3.9-1.1-1-.7-1.8-1.7-2.3-2.9s-.7-2.6-.7-4.1.2-2.9.7-4.1,1.3-2.2,2.3-2.9c1-.7,2.4-1.1,4-1.1s1.2,0,1.9.2c.6.1,1.2.4,1.8.7s1,.7,1.4,1.2v-7.3h2.5v21.1h-2.4v-2.4c-.5.6-.9,1.1-1.5,1.4s-1.1.6-1.8.8c-.7.2-1.3.3-2,.3h0ZM349.5,222c1,0,1.9-.3,2.6-.8s1.3-1.2,1.6-2.1c.4-.9.6-1.9.6-2.9s-.2-2.1-.5-2.9c-.4-.8-.9-1.5-1.6-2s-1.6-.7-2.7-.7-2,.3-2.7.8-1.2,1.2-1.5,2.1-.5,1.9-.5,3,0,1.5.2,2.2c.2.7.4,1.3.8,1.8.4.5.8.9,1.4,1.2s1.3.4,2.2.4h0Z"/>
    <path class="st0" d="M367.4,224.3c-2.2,0-3.8-.6-4.9-1.7-1.1-1.1-1.7-2.9-1.7-5.3v-8.9h2.5v8.7c0,1,.1,1.9.5,2.7.3.7.7,1.3,1.4,1.7s1.4.6,2.3.6,1.7-.2,2.4-.6,1.1-.9,1.4-1.7c.3-.7.4-1.6.4-2.7v-8.7h2.5v8.9c0,2.4-.6,4.2-1.7,5.3s-2.8,1.7-5,1.7h0Z"/>
    <path class="st0" d="M383.8,224.3c-.7,0-1.4,0-2.2-.2-.7-.1-1.4-.4-2-.7s-1.1-.8-1.6-1.4-.7-1.3-.8-2.1h2.6c.2.5.5,1,1,1.3s1,.6,1.5.7c.6.1,1.1.2,1.6.2s.7,0,1.1,0c.4,0,.8-.1,1.2-.3.4-.1.7-.4,1-.7s.4-.7.4-1.2,0-.7-.3-1c-.2-.3-.4-.5-.7-.6s-.7-.3-1.2-.4c-.9-.2-1.9-.4-3-.6s-2-.5-2.8-1c-.3-.2-.5-.4-.8-.6s-.4-.5-.6-.8c-.2-.3-.3-.6-.4-.9,0-.4-.1-.7-.1-1.1,0-.8.1-1.4.5-2,.3-.6.7-1,1.3-1.4s1.2-.6,1.9-.8c.7-.2,1.5-.3,2.3-.3s2,.2,2.8.5c.8.3,1.5.8,2,1.4.5.6.8,1.4,1,2.3h-2.4c-.1-.6-.5-1-1.1-1.4-.6-.4-1.4-.5-2.4-.5s-.7,0-1.1,0c-.4,0-.8.1-1.1.3-.4.1-.7.4-.9.7-.2.3-.4.7-.4,1.1s.1.8.3,1.1c.2.3.5.5,1,.7s.9.3,1.4.4c.7.1,1.5.3,2.3.4s1.5.3,2,.5c.6.2,1.2.5,1.6.8.4.4.7.8,1,1.3.2.5.3,1.1.3,1.7,0,.9-.2,1.7-.5,2.3s-.9,1.1-1.5,1.4c-.6.3-1.3.6-2,.7-.7.1-1.5.2-2.2.2h0Z"/>
    <path class="st0" d="M399.3,224.1c-1.2,0-2.1-.2-2.9-.5s-1.2-.9-1.6-1.7-.5-1.7-.5-2.9v-8.4h-2.6v-2.2h2.6v-4.7h2.5v4.7h4.2v2.2h-4.2v8.1c0,1.1.2,1.9.6,2.4s1.2.8,2.4.8h1.2v2.2h-1.7Z"/>
    <path class="st0" d="M404,224.1v-15.7h2.4v2.4c.5-.6,1-1.1,1.5-1.5.5-.4,1.1-.7,1.8-.8.6-.2,1.3-.3,2.1-.3h.8v2.4h-.9c-1.2,0-2.2.3-3,.8s-1.3,1.2-1.7,2.1-.5,1.9-.5,2.9v7.7h-2.5Z"/>
    <path class="st0" d="M416.4,206c-.5,0-.9-.2-1.2-.5-.3-.3-.5-.7-.5-1.2s.2-.9.5-1.2c.3-.3.7-.5,1.2-.5s.9.2,1.2.5c.4.3.5.7.5,1.2s-.2.9-.5,1.2-.7.5-1.2.5h0ZM415.1,224.1v-15.7h2.5v15.7h-2.5Z"/>
    <path class="st0" d="M428.4,224.3c-1.7,0-3-.3-4.1-1-1.1-.7-1.9-1.6-2.4-2.8s-.8-2.6-.8-4.1.3-3,.8-4.2,1.4-2.1,2.5-2.8c1.1-.7,2.4-1,4-1s2.3.2,3.2.7c.9.5,1.6,1.1,2.2,1.9.6.8,1,1.6,1.2,2.5s.4,1.8.3,2.8c0,.2,0,.4,0,.5s0,.4,0,.5h-11.7c0,.9.3,1.7.7,2.5.4.7.9,1.3,1.6,1.7.7.4,1.6.6,2.6.6s1,0,1.6-.2,1-.4,1.4-.7c.4-.3.7-.7.9-1.3h2.6c-.2,1-.7,1.8-1.3,2.5s-1.4,1.1-2.4,1.4c-.9.3-1.9.5-2.9.5h0ZM423.7,214.9h9.1c0-.9-.2-1.7-.6-2.4s-.9-1.2-1.5-1.6-1.4-.6-2.3-.6-1.8.2-2.5.6c-.7.4-1.2,1-1.5,1.6-.4.7-.6,1.4-.7,2.2h0Z"/>
  </g>
  <g>
    <polygon class="st1" points="69.8 103.9 54 88.2 39.9 102.3 69.8 132.1 99.3 102.6 85.2 88.5 69.8 103.9"/>
    <polygon class="st0" points="38.2 100.5 54.2 84.6 70 100.3 85.4 84.9 101.2 100.7 132.7 69.2 69.9 6.4 7 69.3 38.2 100.5 38.2 100.5"/>
    <polygon class="st0" points="170.1 60.3 179.8 60.3 179.8 14.1 197 14.1 197 5.3 152.9 5.3 152.9 14.1 170.1 14.1 170.1 60.3"/>
    <path class="st0" d="M213.6,40.4h11.3l10.8,19.8h10.9l-12.1-21.4c2.4-.8,4.4-1.9,6.2-3.3,1.7-1.4,3.1-3.2,4.1-5.4,1-2.1,1.5-4.6,1.5-7.4s-.5-6.2-1.6-8.5c-1.1-2.3-2.6-4.1-4.5-5.4s-4.1-2.3-6.6-2.8c-2.5-.5-5.1-.8-7.9-.8h-21.7v55h9.7v-19.8h0ZM213.6,14.1h11.7c2.3,0,4.3.3,6,.8,1.7.5,3,1.4,3.9,2.6s1.4,3,1.4,5.1c0,1.8-.4,3.3-1,4.5-.6,1.2-1.4,2.1-2.6,2.8-1.1.7-2.4,1.2-3.9,1.4-1.5.3-3.1.4-4.9.4h-10.7V14.1h0Z"/>
    <polygon class="st0" points="295.6 51.4 266.5 51.4 266.5 37.3 291.8 37.3 291.8 28.6 266.5 28.6 266.5 14.1 295.6 14.1 295.6 5.3 256.8 5.3 256.8 60.3 295.6 60.3 295.6 51.4"/>
    <polygon class="st0" points="314.6 20.4 341.4 60.3 351.6 60.3 351.6 5.3 341.8 5.3 341.8 45.3 315.3 5.3 304.9 5.3 304.9 60.3 314.6 60.3 314.6 20.4"/>
    <path class="st0" d="M373.1,57.3c4,2.4,8.8,3.6,14.4,3.6s10.6-1.2,14.6-3.7c4-2.4,7.1-5.8,9.2-10,2.1-4.2,3.1-9.1,3.1-14.6s-1.1-10.4-3.2-14.6c-2.1-4.2-5.2-7.5-9.1-9.9s-8.8-3.6-14.4-3.6-10.5,1.2-14.5,3.6-7.1,5.7-9.2,10c-2.1,4.2-3.2,9.1-3.2,14.7s1,10.3,3.1,14.6c2.1,4.3,5.1,7.6,9.1,10h0ZM372.5,23.4c1.2-2.9,3-5.3,5.6-7.1,2.5-1.8,5.7-2.7,9.6-2.7s5.5.5,7.6,1.6c2.1,1.1,3.9,2.5,5.2,4.3,1.4,1.8,2.4,3.9,3,6.1.6,2.3,1,4.7,1,7.2s-.6,6.4-1.7,9.3c-1.2,2.9-3,5.3-5.5,7.1-2.5,1.8-5.7,2.7-9.6,2.7s-7.1-.9-9.6-2.7-4.4-4.1-5.6-7c-1.2-2.9-1.8-6-1.8-9.3s.6-6.5,1.8-9.4h0Z"/>
    <rect class="st0" x="423.7" y="5.3" width="9.7" height="55"/>
    <path class="st0" d="M486.9,43.9c0-2.1-.3-4-1-5.5-.6-1.5-1.5-2.8-2.7-3.9-1.1-1.1-2.5-2-4.1-2.7-1.6-.7-3.3-1.4-5.2-1.9-1.9-.6-4-1.1-6.1-1.5s-4.1-.9-6-1.6c-1.4-.5-2.6-1-3.6-1.6s-1.8-1.3-2.4-2.1c-.6-.9-.9-1.8-.9-3s.3-2.4.9-3.2,1.4-1.5,2.3-2.1c1-.5,2-.9,3.3-1.1,1.2-.2,2.4-.3,3.7-.3,1.8,0,3.5.2,5.1.7s2.8,1.3,3.9,2.3c1,1.1,1.7,2.5,1.9,4.2h9.4c-.3-3.7-1.3-6.8-3.1-9.2-1.8-2.4-4.1-4.1-7-5.3-2.8-1.1-6-1.7-9.4-1.7s-3.6.2-5.6.5-3.8.8-5.6,1.5c-1.8.7-3.4,1.6-4.8,2.8-1.4,1.2-2.6,2.7-3.4,4.5s-1.3,4-1.3,6.6.3,4.1,1,5.8,1.6,3,2.7,4,2.4,2,4,2.8,3.1,1.4,4.8,2c1.3.6,2.7,1,4.1,1.4,1.4.4,2.9.7,4.4,1,1.5.3,2.9.7,4.2,1.1,1.3.3,2.5.7,3.5,1.3,1,.5,1.7,1.2,2.3,2,.5.8.8,1.9.8,3.1s-.5,3.1-1.5,4.1c-1,1-2.3,1.8-3.8,2.2s-3.1.7-4.9.7-3.8-.2-5.7-.7c-1.9-.4-3.5-1.2-4.9-2.4s-2.4-2.7-3-4.7h-9.9c.7,4,2.1,7.2,4.3,9.7,2.2,2.5,4.9,4.3,8.1,5.4,3.2,1.1,6.7,1.7,10.4,1.7s5.3-.3,7.7-.9,4.7-1.6,6.6-2.9c1.9-1.3,3.5-3.1,4.6-5.3,1.1-2.1,1.7-4.8,1.7-7.9h0Z"/>
    <path class="st0" d="M202.5,118c2-4.1,3.1-9,3.1-14.6s-1-10.7-3.1-14.8c-2.1-4.1-5.1-7.3-9.1-9.5s-8.9-3.3-14.6-3.3h-20.3v55h20.4c5.8,0,10.7-1.1,14.7-3.3,4-2.2,7-5.4,9.1-9.5h0ZM193.9,112.9c-1.2,2.8-3,5-5.5,6.5-2.5,1.6-5.8,2.4-9.9,2.4h-10.4v-37.3h10.5c4.1,0,7.4.8,9.9,2.4s4.3,3.8,5.5,6.7c1.1,2.8,1.7,6,1.7,9.6s-.6,6.9-1.7,9.7h0Z"/>
    <polygon class="st0" points="214.9 130.7 253.7 130.7 253.7 121.8 224.6 121.8 224.6 107.8 249.9 107.8 249.9 99 224.6 99 224.6 84.6 253.7 84.6 253.7 75.7 214.9 75.7 214.9 130.7"/>
    <path class="st0" d="M305.4,123.3c2.1-2.6,3.5-5.7,4.2-9.4h-9.9c-.5,1.7-1.3,3.2-2.5,4.5-1.2,1.3-2.7,2.2-4.5,2.9-1.8.7-3.9,1-6.3,1-3.8,0-7-.9-9.4-2.7-2.4-1.8-4.2-4.2-5.3-7.2-1.1-3-1.7-6.1-1.7-9.5s.5-6.3,1.6-9.2c1.1-2.8,2.8-5.2,5.2-7,2.4-1.8,5.5-2.7,9.4-2.7s6.5.7,8.7,2.3,3.7,3.6,4.4,6.2h9.4c-.6-3.7-1.9-6.9-3.8-9.5-2-2.6-4.6-4.5-7.7-6-3.2-1.4-6.8-2.1-11-2.1s-10.3,1.2-14.2,3.6c-3.9,2.4-6.8,5.7-8.9,10-2,4.3-3,9.2-3,14.7s1,10.4,3,14.6c2,4.2,4.9,7.5,8.8,9.8,3.9,2.4,8.7,3.5,14.4,3.5s7.8-.7,11.1-2.1c3.3-1.4,6-3.4,8.2-6h0Z"/>
    <path class="st0" d="M343.4,75.7h-11.6l-21.1,55h10.4l3.7-10.2h25.4l3.7,10.2h10.5l-21-55ZM328,111.7l9.6-26.2,9.5,26.2h-19.1Z"/>
    <polygon class="st0" points="417.8 130.7 427.5 130.7 427.5 75.7 414.6 75.7 399.5 103.5 384.2 75.7 370.9 75.7 370.9 130.7 380.6 130.7 380.6 88 397.2 117.7 401.3 117.7 417.8 88 417.8 130.7"/>
    <path class="st0" d="M471.3,77.6c-3-1.3-6.6-1.9-10.8-1.9h-20.7v55h9.7v-17h9.9c4.1,0,7.8-.7,11.1-2.1,3.2-1.4,5.8-3.6,7.6-6.4s2.8-6.4,2.8-10.7-.8-8.1-2.5-10.8-4-4.8-7.1-6h0ZM467.9,102.4c-2.2,1.7-5.1,2.6-8.6,2.6h-9.7v-20.4h10.5c3.8,0,6.6.8,8.4,2.4s2.7,4.1,2.7,7.3-1.1,6.4-3.3,8.1Z"/>
    <path class="st0" d="M525.7,127.5c1.9-1.3,3.5-3.1,4.6-5.2,1.1-2.1,1.7-4.8,1.7-7.9s-.3-4-1-5.5c-.7-1.5-1.5-2.8-2.7-3.9-1.1-1.1-2.5-2-4.1-2.7-1.6-.7-3.3-1.4-5.2-1.9-1.9-.6-4-1.1-6.1-1.5-2.1-.4-4.1-.9-6-1.6-1.4-.5-2.6-1-3.6-1.6s-1.8-1.3-2.4-2.1c-.6-.9-.9-1.8-.9-3s.3-2.4.9-3.2,1.4-1.5,2.3-2.1c1-.5,2-.9,3.3-1.1s2.4-.3,3.7-.3c1.8,0,3.5.2,5.1.7s2.8,1.3,3.9,2.3c1,1.1,1.7,2.5,1.9,4.2h9.4c-.3-3.7-1.3-6.8-3.1-9.2-1.8-2.4-4.1-4.1-7-5.3-2.8-1.1-6-1.7-9.4-1.7s-3.6.2-5.6.5-3.8.8-5.6,1.5c-1.8.7-3.4,1.6-4.8,2.8s-2.6,2.7-3.4,4.5c-.9,1.8-1.3,4-1.3,6.6s.3,4.1,1,5.8,1.6,3,2.7,4c1.1,1.1,2.4,2,4,2.8s3.1,1.4,4.8,2c1.3.6,2.7,1,4.1,1.4,1.4.4,2.9.7,4.4,1,1.5.3,2.9.7,4.2,1.1,1.3.3,2.5.7,3.5,1.3s1.7,1.2,2.3,2c.5.8.8,1.9.8,3.1s-.5,3.1-1.5,4.1c-1,1-2.3,1.8-3.8,2.2-1.5.4-3.1.7-4.9.7s-3.8-.2-5.7-.7c-1.9-.4-3.5-1.2-4.9-2.4s-2.4-2.7-3-4.7h-9.9c.7,4,2.1,7.2,4.3,9.7,2.2,2.5,4.9,4.3,8.1,5.4,3.2,1.1,6.7,1.7,10.4,1.7s5.3-.3,7.7-.9,4.7-1.6,6.6-2.9h0Z"/>
  </g>
</svg>